<?xml version="1.0" standalone="no"?>
<!DOCTYPE svg PUBLIC "-//W3C//DTD SVG 20010904//EN"
 "http://www.w3.org/TR/2001/REC-SVG-20010904/DTD/svg10.dtd">
<svg version="1.0" xmlns="http://www.w3.org/2000/svg"
 width="820.000000pt" height="462.000000pt" viewBox="0 0 820.000000 462.000000"
 preserveAspectRatio="xMidYMid meet">

<g transform="translate(0.000000,462.000000) scale(0.100000,-0.100000)"
fill="#000000" stroke="none">
<path d="M2816 4014 c-10 -26 -7 -114 4 -114 6 0 10 28 10 65 0 66 -3 77 -14
49z"/>
<path d="M4616 3954 c-10 -26 -7 -152 4 -159 6 -4 10 27 10 84 0 91 -3 105
-14 75z"/>
<path d="M2827 3883 c-3 -5 -1 -17 4 -28 7 -17 8 -17 8 8 1 27 -4 34 -12 20z"/>
<path d="M2799 3820 c-4 -25 -10 -56 -14 -70 -6 -22 -5 -21 10 5 9 17 15 45
13 70 l-3 40 -6 -45z"/>
<path d="M4625 3770 c3 -5 8 -10 11 -10 2 0 4 5 4 10 0 6 -5 10 -11 10 -5 0
-7 -4 -4 -10z"/>
<path d="M2851 3744 c0 -11 3 -14 6 -6 3 7 2 16 -1 19 -3 4 -6 -2 -5 -13z"/>
<path d="M4598 3700 c-3 -36 -5 -67 -2 -69 11 -11 15 12 12 70 l-3 64 -7 -65z"/>
<path d="M4634 3665 c0 -14 4 -25 8 -25 4 0 8 11 8 25 0 14 -4 25 -8 25 -4 0
-8 -11 -8 -25z"/>
<path d="M2761 3624 c0 -11 3 -14 6 -6 3 7 2 16 -1 19 -3 4 -6 -2 -5 -13z"/>
<path d="M4584 3605 c-10 -26 1 -35 13 -10 6 14 7 25 2 25 -5 0 -12 -7 -15
-15z"/>
<path d="M4560 3429 c0 -5 5 -7 10 -4 6 3 10 8 10 11 0 2 -4 4 -10 4 -5 0 -10
-5 -10 -11z"/>
<path d="M2575 3349 c-11 -17 -2 -18 19 -3 17 12 17 14 4 14 -9 0 -20 -5 -23
-11z"/>
<path d="M2480 3333 c-14 -3 -28 -8 -32 -12 -14 -13 37 -10 77 4 37 13 38 14
10 13 -16 0 -41 -3 -55 -5z"/>
<path d="M3118 3333 c7 -3 16 -2 19 1 4 3 -2 6 -13 5 -11 0 -14 -3 -6 -6z"/>
<path d="M3161 3324 c5 -6 19 -10 29 -7 27 7 25 10 -10 15 -22 3 -27 2 -19 -8z"/>
<path d="M4701 3314 c0 -11 3 -14 6 -6 3 7 2 16 -1 19 -3 4 -6 -2 -5 -13z"/>
<path d="M2281 3309 c18 -12 86 -12 94 0 3 6 -19 10 -52 10 -38 0 -52 -3 -42
-10z"/>
<path d="M3290 3310 l-25 -8 25 0 c14 0 39 4 55 8 l30 8 -30 0 c-16 0 -41 -4
-55 -8z"/>
<path d="M4532 3300 c0 -14 2 -19 5 -12 2 6 2 18 0 25 -3 6 -5 1 -5 -13z"/>
<path d="M2401 3296 c2 -2 27 -10 54 -19 l50 -17 -24 20 c-13 11 -37 20 -54
20 -17 0 -28 -2 -26 -4z"/>
<path d="M3173 3283 c15 -2 37 -2 50 0 12 2 0 4 -28 4 -27 0 -38 -2 -22 -4z"/>
<path d="M2571 3216 c2 -2 15 -9 29 -16 23 -12 24 -12 11 3 -7 10 -20 17 -29
17 -8 0 -13 -2 -11 -4z"/>
<path d="M4717 3195 c-4 -8 -2 -17 3 -20 6 -4 10 3 10 14 0 25 -6 27 -13 6z"/>
<path d="M4506 3164 c-4 -14 -5 -28 -3 -31 3 -2 8 8 11 23 4 14 5 28 3 31 -3
2 -8 -8 -11 -23z"/>
<path d="M4735 3111 c2 -29 6 -56 9 -59 8 -8 6 26 -4 73 -9 38 -9 37 -5 -14z"/>
<path d="M4486 3045 c-3 -9 -6 -22 -5 -28 0 -7 5 -1 10 12 5 13 8 26 5 28 -2
2 -6 -3 -10 -12z"/>
<path d="M4751 3025 c1 -11 5 -31 9 -45 8 -24 8 -24 9 5 0 17 -4 37 -9 45 -8
12 -10 11 -9 -5z"/>
<path d="M4456 2923 c-6 -14 -5 -15 5 -6 7 7 10 15 7 18 -3 3 -9 -2 -12 -12z"/>
<path d="M2780 2795 c0 -12 4 -25 9 -30 5 -6 11 -28 14 -50 l4 -40 1 41 c1 23
-5 55 -13 70 -12 24 -15 26 -15 9z"/>
<path d="M4392 2733 c-12 -25 -21 -48 -19 -49 2 -2 14 17 26 42 13 25 21 47
19 49 -2 2 -14 -17 -26 -42z"/>
<path d="M2820 2663 c0 -16 -2 -16 -11 -3 -7 11 -8 1 -3 -35 13 -95 22 -104
23 -22 1 42 -1 77 -4 77 -3 0 -5 -8 -5 -17z"/>
<path d="M4910 2635 c7 -8 17 -15 22 -15 6 0 5 7 -2 15 -7 8 -17 15 -22 15 -6
0 -5 -7 2 -15z"/>
<path d="M4218 2553 c7 -3 16 -2 19 1 4 3 -2 6 -13 5 -11 0 -14 -3 -6 -6z"/>
<path d="M5042 2544 c9 -9 21 -15 27 -13 6 2 -2 10 -17 17 -25 11 -25 11 -10
-4z"/>
<path d="M4165 2530 c-3 -5 -2 -10 4 -10 5 0 13 5 16 10 3 6 2 10 -4 10 -5 0
-13 -4 -16 -10z"/>
<path d="M4100 2510 c-13 -8 -12 -10 3 -10 9 0 17 5 17 10 0 12 -1 12 -20 0z"/>
<path d="M3928 2456 c-36 -6 -70 -15 -75 -20 -9 -10 52 -2 142 19 72 16 29 17
-67 1z"/>
<path d="M5248 2463 c6 -2 18 -2 25 0 6 3 1 5 -13 5 -14 0 -19 -2 -12 -5z"/>
<path d="M5300 2459 c0 -5 9 -9 20 -9 11 0 20 2 20 4 0 2 -9 6 -20 9 -11 3
-20 1 -20 -4z"/>
<path d="M5351 2446 c2 -2 27 -6 54 -9 32 -4 43 -3 30 3 -19 8 -93 14 -84 6z"/>
<path d="M3700 2430 c-71 -6 -66 -9 24 -15 16 -1 50 4 75 11 44 12 45 12 11
11 -19 0 -69 -3 -110 -7z"/>
<path d="M5537 2423 c18 -2 50 -2 70 0 21 2 7 4 -32 4 -38 0 -55 -2 -38 -4z"/>
<path d="M3380 2414 c38 -8 90 -9 90 -2 0 4 -24 7 -52 7 -29 -1 -46 -3 -38 -5z"/>
<path d="M5770 2411 c0 -8 110 -4 119 5 2 2 -23 4 -57 4 -34 0 -62 -4 -62 -9z"/>
<path d="M5699 2399 c-10 -6 -7 -9 14 -9 29 0 35 5 14 13 -8 3 -20 1 -28 -4z"/>
<path d="M3549 2390 c18 -4 63 -10 100 -13 l66 -6 -65 14 c-36 8 -81 14 -100
14 l-35 -1 34 -8z"/>
<path d="M5584 2381 c5 -8 86 -4 95 5 2 2 -19 4 -48 4 -29 0 -50 -4 -47 -9z"/>
<path d="M5420 2320 c-9 -6 -10 -10 -3 -10 6 0 15 5 18 10 8 12 4 12 -15 0z"/>
<path d="M3830 2316 c0 -2 13 -6 29 -8 17 -2 28 -1 25 4 -5 8 -54 12 -54 4z"/>
<path d="M5318 2283 c7 -3 16 -2 19 1 4 3 -2 6 -13 5 -11 0 -14 -3 -6 -6z"/>
<path d="M4049 2220 c24 -11 48 -20 55 -20 17 1 -65 40 -83 40 -9 0 4 -9 28
-20z"/>
<path d="M4130 2180 c0 -6 7 -10 15 -10 8 0 15 2 15 4 0 2 -7 6 -15 10 -8 3
-15 1 -15 -4z"/>
<path d="M5105 2180 c-8 -13 5 -13 25 0 13 8 13 10 -2 10 -9 0 -20 -4 -23 -10z"/>
<path d="M4227 2109 c7 -7 15 -10 18 -7 3 3 -2 9 -12 12 -14 6 -15 5 -6 -5z"/>
<path d="M4278 2078 c12 -13 22 -28 22 -32 0 -4 7 -15 17 -24 9 -9 14 -12 12
-7 -20 43 -33 63 -52 74 -22 14 -22 14 1 -11z"/>
<path d="M3416 2018 c-9 -37 -7 -118 4 -118 6 0 10 30 10 70 0 73 -4 85 -14
48z"/>
<path d="M4380 1941 c0 -5 5 -13 10 -16 6 -3 10 -2 10 4 0 5 -4 13 -10 16 -5
3 -10 2 -10 -4z"/>
<path d="M3399 1820 c-4 -25 -10 -56 -14 -70 -6 -22 -5 -21 10 5 9 17 15 45
13 70 l-3 40 -6 -45z"/>
<path d="M3451 1744 c0 -11 3 -14 6 -6 3 7 2 16 -1 19 -3 4 -6 -2 -5 -13z"/>
<path d="M4485 1601 c5 -34 12 -48 19 -40 2 2 -3 20 -10 39 l-14 35 5 -34z"/>
<path d="M4741 1574 c0 -11 3 -14 6 -6 3 7 2 16 -1 19 -3 4 -6 -2 -5 -13z"/>
<path d="M4504 1481 c7 -38 13 -48 22 -38 4 4 -1 21 -10 39 l-17 33 5 -34z"/>
<path d="M3648 1353 c7 -3 16 -2 19 1 4 3 -2 6 -13 5 -11 0 -14 -3 -6 -6z"/>
<path d="M4530 1346 c0 -23 16 -27 17 -5 1 10 -2 19 -8 19 -5 0 -9 -6 -9 -14z"/>
<path d="M3055 1333 c-27 -2 -53 -7 -57 -11 -14 -14 80 -12 119 3 41 15 37 15
-62 8z"/>
<path d="M3764 1321 c3 -5 15 -7 26 -4 28 7 25 13 -6 13 -14 0 -23 -4 -20 -9z"/>
<path d="M2893 1314 c9 -9 78 -11 83 -2 3 5 -16 8 -42 8 -26 0 -45 -3 -41 -6z"/>
<path d="M3850 1316 c0 -2 7 -6 15 -10 8 -3 15 -1 15 4 0 6 -7 10 -15 10 -8 0
-15 -2 -15 -4z"/>
<path d="M3890 1311 c0 -6 17 -7 38 -4 51 8 53 13 4 13 -23 0 -42 -4 -42 -9z"/>
<path d="M3000 1289 c0 -5 11 -9 25 -9 14 0 25 2 25 4 0 2 -11 6 -25 8 -14 3
-25 1 -25 -3z"/>
<path d="M3773 1283 c15 -2 37 -2 50 0 12 2 0 4 -28 4 -27 0 -38 -2 -22 -4z"/>
<path d="M3181 1217 c2 -1 13 -9 24 -17 19 -14 19 -14 6 3 -7 9 -18 17 -24 17
-6 0 -8 -1 -6 -3z"/>
<path d="M4565 1210 c-3 -5 -1 -10 4 -10 6 0 11 5 11 10 0 6 -2 10 -4 10 -3 0
-8 -4 -11 -10z"/>
<path d="M3544 1108 l-19 -23 23 19 c21 18 27 26 19 26 -2 0 -12 -10 -23 -22z"/>
<path d="M4582 1090 c0 -14 2 -19 5 -12 2 6 2 18 0 25 -3 6 -5 1 -5 -13z"/>
<path d="M4597 1008 c7 -72 13 -73 13 -5 0 32 -4 57 -9 57 -5 0 -7 -23 -4 -52z"/>
<path d="M4636 1015 c-3 -8 -1 -15 4 -15 6 0 10 7 10 15 0 8 -2 15 -4 15 -2 0
-6 -7 -10 -15z"/>
<path d="M3330 1010 c0 -5 5 -10 11 -10 5 0 7 5 4 10 -3 6 -8 10 -11 10 -2 0
-4 -4 -4 -10z"/>
<path d="M4607 860 c9 -114 22 -129 22 -27 1 51 -3 86 -8 83 -5 -4 -11 0 -14
6 -3 7 -3 -21 0 -62z"/>
<path d="M3381 804 c0 -12 6 -35 14 -50 12 -24 15 -26 15 -8 0 11 -4 24 -9 30
-5 5 -11 18 -14 29 -4 19 -5 19 -6 -1z"/>
<path d="M3406 634 c10 -103 23 -122 23 -36 1 53 -3 78 -14 89 -14 14 -15 8
-9 -53z"/>
</g>
</svg>
