<?xml version="1.0" standalone="no"?>
<!DOCTYPE svg PUBLIC "-//W3C//DTD SVG 20010904//EN"
 "http://www.w3.org/TR/2001/REC-SVG-20010904/DTD/svg10.dtd">
<svg version="1.0" xmlns="http://www.w3.org/2000/svg"
 width="600.000000pt" height="400.000000pt" viewBox="0 0 600.000000 400.000000"
 preserveAspectRatio="xMidYMid meet">

<g transform="translate(0.000000,400.000000) scale(0.100000,-0.100000)"
fill="#000000" stroke="none">
<path d="M2378 3986 c-92 -25 -184 -105 -227 -196 -25 -53 -26 -62 -29 -274
-2 -120 -1 -229 2 -241 11 -43 41 -36 89 20 25 28 59 58 76 65 28 11 35 10 66
-11 20 -13 52 -48 71 -76 l35 -53 119 0 c106 0 119 2 124 18 4 11 17 29 30 41
l24 22 40 -20 c87 -44 140 -144 129 -240 -4 -30 -1 -53 6 -60 6 -6 40 -11 75
-11 84 0 133 -15 182 -58 60 -51 84 -104 84 -182 0 -79 -22 -127 -88 -187 -25
-23 -46 -48 -46 -55 0 -8 20 -31 45 -51 81 -68 109 -154 81 -251 -33 -112
-129 -179 -251 -175 -85 3 -94 -6 -88 -79 7 -73 -22 -147 -78 -197 -52 -47
-83 -54 -115 -24 -13 12 -24 31 -24 40 0 30 -33 39 -139 39 -111 0 -107 2
-162 -77 -31 -46 -99 -87 -128 -78 -10 3 -41 30 -69 61 -45 49 -53 54 -72 44
-21 -11 -21 -16 -18 -253 3 -240 3 -242 30 -292 14 -28 44 -69 66 -91 l40 -39
-17 -112 c-9 -62 -19 -114 -22 -117 -2 -3 -112 13 -244 34 -132 21 -325 52
-429 69 -135 22 -194 28 -207 20 -11 -5 -19 -11 -20 -12 -9 -37 -33 -207 -29
-207 4 0 21 36 39 79 l33 80 51 -23 c61 -27 687 -312 767 -349 71 -33 128 -39
195 -20 107 30 141 77 255 343 30 69 56 128 59 131 3 4 146 9 316 12 299 6
396 13 535 41 63 13 75 12 408 -44 188 -31 345 -59 347 -62 3 -3 -19 -202 -50
-443 -51 -404 -55 -439 -40 -461 8 -13 19 -24 23 -24 31 1 254 39 259 44 4 3
-11 6 -33 7 -21 0 -48 2 -59 4 -11 2 -39 5 -63 6 -24 2 -45 6 -48 10 -2 4 74
211 171 459 194 499 195 505 150 596 -14 28 -36 61 -49 73 -12 12 -83 49 -156
82 -74 32 -135 61 -137 63 -2 2 48 54 110 117 119 119 157 175 157 232 0 31 4
36 43 51 60 23 108 66 142 127 l30 54 3 384 3 385 -31 63 c-21 42 -45 74 -70
92 l-38 27 34 36 c37 41 54 92 48 140 -7 53 -108 249 -175 339 -127 172 -300
313 -512 418 -143 71 -267 113 -432 146 -187 37 -183 37 -680 41 -367 3 -480
1 -517 -10z m938 -70 c209 -18 389 -59 556 -126 312 -125 555 -341 697 -621
53 -104 62 -163 32 -200 -37 -48 -75 -51 -599 -52 l-483 0 -35 41 c-42 50
-140 100 -210 108 l-51 6 -6 57 c-13 150 -149 278 -306 286 -61 4 -154 -26
-202 -65 -22 -17 -39 -27 -39 -22 0 20 -77 86 -124 108 -103 46 -211 40 -300
-16 -26 -17 -49 -30 -53 -30 -3 0 -3 71 -1 158 4 135 7 164 27 207 40 90 117
150 209 164 59 8 785 6 888 -3z m1226 -1088 c50 -15 113 -83 128 -139 7 -26
11 -92 8 -164 -3 -114 -5 -124 -31 -164 -49 -75 -140 -100 -224 -62 -56 26
-90 80 -99 156 -4 33 -13 72 -20 87 -22 43 -71 72 -123 72 -56 0 -82 -14 -117
-60 l-27 -35 -2 -212 c-2 -194 -4 -215 -23 -253 -35 -69 -115 -105 -197 -90
-37 7 -97 53 -118 90 -8 14 -14 111 -17 311 -5 282 -6 291 -28 322 -12 17 -40
39 -61 49 -33 14 -40 23 -48 60 l-10 44 485 0 c340 0 496 -3 524 -12z m-90
-1143 c-2 -18 -25 -56 -59 -97 -182 -223 -484 -396 -815 -469 -192 -42 -281
-48 -748 -46 -436 2 -446 2 -486 24 -49 26 -110 92 -132 142 -12 26 -17 78
-20 199 -2 89 -1 162 2 162 4 0 23 -11 44 -24 58 -37 107 -49 186 -44 85 6
155 38 212 97 38 40 38 41 58 22 53 -49 169 -85 240 -74 83 12 154 49 202 106
l29 36 645 -2 645 -2 -3 -30z"/>
<path d="M3315 3826 c-142 -62 -100 -266 55 -266 90 0 146 63 138 152 -10 96
-106 152 -193 114z m105 -86 c27 -27 25 -56 -5 -85 -30 -31 -68 -32 -95 -3
-24 26 -26 56 -4 86 20 29 76 30 104 2z"/>
<path d="M2677 3729 c-53 -28 -82 -92 -68 -146 14 -52 34 -77 75 -97 45 -21
78 -20 124 3 97 50 99 191 2 242 -44 24 -85 23 -133 -2z m116 -77 c38 -33 8
-102 -45 -102 -79 0 -93 98 -18 122 19 6 40 -1 63 -20z"/>
<path d="M4123 3465 c-119 -51 -83 -244 47 -259 47 -5 81 9 118 47 106 109
-23 274 -165 212z m115 -82 c17 -23 15 -63 -5 -85 -34 -38 -113 -8 -113 42 0
12 11 32 26 46 19 20 31 24 52 19 15 -3 33 -13 40 -22z"/>
<path d="M3542 3443 c-35 -7 -90 -68 -98 -108 -9 -49 2 -83 40 -121 111 -111
302 19 226 153 -33 59 -101 90 -168 76z m86 -89 c26 -18 30 -65 7 -88 -59 -59
-155 13 -103 79 23 29 62 33 96 9z"/>
<path d="M1326 2883 c-9 -56 -86 -731 -86 -754 0 -18 8 -19 109 -19 61 0 112
3 114 8 3 4 8 79 12 167 7 178 14 267 21 274 2 2 4 -10 4 -27 0 -36 58 -401
66 -414 3 -4 41 -8 85 -8 73 0 80 2 88 23 5 12 25 112 45 221 20 110 39 202
41 205 3 2 5 -31 5 -75 0 -106 11 -346 15 -361 5 -14 210 -19 218 -5 4 6 -6
129 -27 347 -3 28 -8 82 -11 120 -4 39 -8 81 -10 95 -2 14 -7 66 -11 115 -4
50 -9 93 -10 98 -1 4 -2 11 -3 15 -1 8 -257 10 -264 2 -2 -3 -16 -75 -31 -160
-15 -85 -30 -168 -33 -185 -5 -22 -11 5 -25 95 -10 69 -24 154 -30 190 l-13
65 -132 3 -131 3 -6 -38z"/>
<path d="M2122 2516 l3 -401 100 0 100 0 3 155 3 155 54 -148 c30 -81 57 -152
60 -157 10 -16 225 -13 225 3 -1 6 -34 82 -74 167 l-74 155 33 22 c52 35 77
85 83 163 9 137 -56 237 -178 270 -25 7 -111 13 -193 14 l-147 2 2 -400z m279
195 c50 -41 18 -152 -46 -163 -19 -3 -20 3 -23 90 -3 92 -3 92 22 92 13 0 34
-9 47 -19z"/>
</g>
</svg>
